<svg xmlns="http://www.w3.org/2000/svg" viewBox="0 0 520 280" role="img" aria-label="fatty-acid ball-and-stick model"><rect width="520" height="280" fill="#ffffff"/><g opacity="1.00"><circle cx="304.9" cy="148.3" r="11.2" fill="#f5e6a8" stroke="#555" stroke-width="0.45"/><circle cx="300.9" cy="144.3" r="3.3" fill="#fff" opacity="0.69"/></g><line x1="289.9" y1="131.7" x2="304.9" y2="148.3" stroke="#141414" stroke-width="2.8" stroke-linecap="round" opacity="0.92"/><g opacity="1.00"><circle cx="289.9" cy="131.7" r="11.1" fill="#f5e6a8" stroke="#555" stroke-width="0.45"/><circle cx="285.9" cy="127.7" r="3.3" fill="#fff" opacity="0.69"/></g><line x1="304.9" y1="148.3" x2="319.6" y2="131.7" stroke="#141414" stroke-width="2.8" stroke-linecap="round" opacity="0.92"/><g opacity="1.00"><circle cx="319.6" cy="131.7" r="11.1" fill="#f5e6a8" stroke="#555" stroke-width="0.45"/><circle cx="315.6" cy="127.7" r="3.3" fill="#fff" opacity="0.69"/></g><line x1="274.8" y1="148.2" x2="289.9" y2="131.7" stroke="#141414" stroke-width="2.8" stroke-linecap="round" opacity="0.92"/><g opacity="1.00"><circle cx="274.8" cy="148.2" r="11.1" fill="#f5e6a8" stroke="#555" stroke-width="0.45"/><circle cx="270.9" cy="144.3" r="3.3" fill="#fff" opacity="0.69"/></g><line x1="260.0" y1="131.8" x2="274.8" y2="148.2" stroke="#141414" stroke-width="2.8" stroke-linecap="round" opacity="0.92"/><g opacity="1.00"><circle cx="201.0" cy="131.8" r="11.0" fill="#f5e6a8" stroke="#555" stroke-width="0.45"/><circle cx="197.0" cy="127.8" r="3.3" fill="#fff" opacity="0.69"/></g><line x1="201.0" y1="131.8" x2="216.1" y2="148.1" stroke="#141414" stroke-width="2.8" stroke-linecap="round" opacity="0.92"/><g opacity="1.00"><circle cx="260.0" cy="131.8" r="10.9" fill="#f5e6a8" stroke="#555" stroke-width="0.45"/><circle cx="256.1" cy="127.9" r="3.3" fill="#fff" opacity="0.69"/></g><line x1="245.4" y1="148.1" x2="260.0" y2="131.8" stroke="#141414" stroke-width="2.8" stroke-linecap="round" opacity="0.92"/><g opacity="1.00"><circle cx="216.1" cy="148.1" r="10.9" fill="#f5e6a8" stroke="#555" stroke-width="0.45"/><circle cx="212.2" cy="144.2" r="3.3" fill="#fff" opacity="0.69"/></g><line x1="216.1" y1="148.1" x2="230.9" y2="131.9" stroke="#141414" stroke-width="2.8" stroke-linecap="round" opacity="0.92"/><g opacity="1.00"><circle cx="245.4" cy="148.1" r="10.9" fill="#f5e6a8" stroke="#555" stroke-width="0.45"/><circle cx="241.5" cy="144.2" r="3.3" fill="#fff" opacity="0.69"/></g><line x1="230.9" y1="131.9" x2="245.4" y2="148.1" stroke="#141414" stroke-width="2.8" stroke-linecap="round" opacity="0.92"/><g opacity="1.00"><circle cx="230.9" cy="131.9" r="10.8" fill="#f5e6a8" stroke="#555" stroke-width="0.45"/><circle cx="227.0" cy="128.0" r="3.3" fill="#fff" opacity="0.69"/></g></svg>