<svg xmlns="http://www.w3.org/2000/svg" viewBox="0 0 520 280" role="img" aria-label="lipid ball-and-stick model"><rect width="520" height="280" fill="#ffffff"/><g opacity="1.00"><circle cx="248.5" cy="153.2" r="11.1" fill="#aad4f5" stroke="#555" stroke-width="0.45"/><circle cx="244.5" cy="149.2" r="3.3" fill="#fff" opacity="0.69"/></g><g opacity="1.00"><circle cx="271.5" cy="153.2" r="11.1" fill="#aad4f5" stroke="#555" stroke-width="0.45"/><circle cx="267.6" cy="149.2" r="3.3" fill="#fff" opacity="0.69"/></g><g opacity="1.00"><circle cx="240.0" cy="147.7" r="11.1" fill="#f5e6a8" stroke="#555" stroke-width="0.45"/><circle cx="236.0" cy="143.7" r="3.3" fill="#fff" opacity="0.69"/></g><g opacity="1.00"><circle cx="279.6" cy="147.4" r="11.1" fill="#f5e6a8" stroke="#555" stroke-width="0.45"/><circle cx="275.6" cy="143.4" r="3.3" fill="#fff" opacity="0.69"/></g><line x1="248.5" y1="153.2" x2="271.5" y2="153.2" stroke="#141414" stroke-width="2.8" stroke-linecap="round" opacity="0.92"/><line x1="248.5" y1="153.2" x2="240.0" y2="147.7" stroke="#141414" stroke-width="2.8" stroke-linecap="round" opacity="0.92"/><line x1="271.5" y1="153.2" x2="279.6" y2="147.4" stroke="#141414" stroke-width="2.8" stroke-linecap="round" opacity="0.92"/><line x1="240.0" y1="147.7" x2="230.4" y2="141.5" stroke="#141414" stroke-width="2.8" stroke-linecap="round" opacity="0.92"/><line x1="279.6" y1="147.4" x2="288.6" y2="140.8" stroke="#141414" stroke-width="2.8" stroke-linecap="round" opacity="0.92"/><g opacity="1.00"><circle cx="230.4" cy="141.5" r="11.0" fill="#f5e6a8" stroke="#555" stroke-width="0.45"/><circle cx="226.4" cy="137.5" r="3.3" fill="#fff" opacity="0.69"/></g><g opacity="1.00"><circle cx="288.6" cy="140.8" r="11.0" fill="#f5e6a8" stroke="#555" stroke-width="0.45"/><circle cx="284.7" cy="136.8" r="3.3" fill="#fff" opacity="0.69"/></g><g opacity="1.00"><circle cx="191.7" cy="116.7" r="11.0" fill="#f5e6a8" stroke="#555" stroke-width="0.45"/><circle cx="187.8" cy="112.7" r="3.3" fill="#fff" opacity="0.69"/></g><g opacity="1.00"><circle cx="325.1" cy="114.4" r="11.0" fill="#f5e6a8" stroke="#555" stroke-width="0.45"/><circle cx="321.2" cy="110.5" r="3.3" fill="#fff" opacity="0.69"/></g><line x1="230.4" y1="141.5" x2="220.8" y2="135.3" stroke="#141414" stroke-width="2.8" stroke-linecap="round" opacity="0.92"/><line x1="288.6" y1="140.8" x2="297.6" y2="134.2" stroke="#141414" stroke-width="2.8" stroke-linecap="round" opacity="0.92"/><line x1="201.6" y1="122.9" x2="191.7" y2="116.7" stroke="#141414" stroke-width="2.8" stroke-linecap="round" opacity="0.92"/><line x1="315.8" y1="121.1" x2="325.1" y2="114.4" stroke="#141414" stroke-width="2.8" stroke-linecap="round" opacity="0.92"/><g opacity="1.00"><circle cx="220.8" cy="135.3" r="11.0" fill="#f5e6a8" stroke="#555" stroke-width="0.45"/><circle cx="216.9" cy="131.4" r="3.3" fill="#fff" opacity="0.69"/></g><g opacity="1.00"><circle cx="297.6" cy="134.2" r="11.0" fill="#f5e6a8" stroke="#555" stroke-width="0.45"/><circle cx="293.7" cy="130.3" r="3.3" fill="#fff" opacity="0.69"/></g><g opacity="1.00"><circle cx="201.6" cy="122.9" r="11.0" fill="#f5e6a8" stroke="#555" stroke-width="0.45"/><circle cx="197.6" cy="119.0" r="3.3" fill="#fff" opacity="0.69"/></g><g opacity="1.00"><circle cx="315.8" cy="121.1" r="11.0" fill="#f5e6a8" stroke="#555" stroke-width="0.45"/><circle cx="311.9" cy="117.1" r="3.3" fill="#fff" opacity="0.69"/></g><line x1="220.8" y1="135.3" x2="211.3" y2="129.1" stroke="#141414" stroke-width="2.8" stroke-linecap="round" opacity="0.92"/><line x1="297.6" y1="134.2" x2="306.7" y2="127.6" stroke="#141414" stroke-width="2.8" stroke-linecap="round" opacity="0.92"/><line x1="211.3" y1="129.1" x2="201.6" y2="122.9" stroke="#141414" stroke-width="2.8" stroke-linecap="round" opacity="0.92"/><line x1="306.7" y1="127.6" x2="315.8" y2="121.1" stroke="#141414" stroke-width="2.8" stroke-linecap="round" opacity="0.92"/><g opacity="1.00"><circle cx="211.3" cy="129.1" r="10.9" fill="#f5e6a8" stroke="#555" stroke-width="0.45"/><circle cx="207.3" cy="125.2" r="3.3" fill="#fff" opacity="0.69"/></g><g opacity="1.00"><circle cx="306.7" cy="127.6" r="10.9" fill="#f5e6a8" stroke="#555" stroke-width="0.45"/><circle cx="302.7" cy="123.7" r="3.3" fill="#fff" opacity="0.69"/></g><g opacity="1.00"><circle cx="259.7" cy="133.3" r="10.9" fill="#f5e6a8" stroke="#555" stroke-width="0.45"/><circle cx="255.7" cy="129.4" r="3.3" fill="#fff" opacity="0.69"/></g><line x1="260.0" y1="140.0" x2="248.5" y2="153.2" stroke="#141414" stroke-width="2.8" stroke-linecap="round" opacity="0.92"/><line x1="260.0" y1="140.0" x2="271.5" y2="153.2" stroke="#141414" stroke-width="2.8" stroke-linecap="round" opacity="0.92"/><line x1="259.7" y1="133.3" x2="259.3" y2="142.4" stroke="#141414" stroke-width="2.8" stroke-linecap="round" opacity="0.92"/><g opacity="1.00"><circle cx="259.3" cy="142.4" r="10.8" fill="#f5e6a8" stroke="#555" stroke-width="0.45"/><circle cx="255.4" cy="138.5" r="3.3" fill="#fff" opacity="0.69"/></g><g opacity="1.00"><circle cx="257.8" cy="178.6" r="10.8" fill="#f5e6a8" stroke="#555" stroke-width="0.45"/><circle cx="253.9" cy="174.7" r="3.3" fill="#fff" opacity="0.69"/></g><line x1="259.3" y1="142.4" x2="258.9" y2="151.4" stroke="#141414" stroke-width="2.8" stroke-linecap="round" opacity="0.92"/><line x1="260.0" y1="140.0" x2="259.7" y2="133.3" stroke="#141414" stroke-width="2.8" stroke-linecap="round" opacity="0.92"/><line x1="258.2" y1="169.5" x2="257.8" y2="178.6" stroke="#141414" stroke-width="2.8" stroke-linecap="round" opacity="0.92"/><g opacity="1.00"><circle cx="258.9" cy="151.4" r="10.8" fill="#f5e6a8" stroke="#555" stroke-width="0.45"/><circle cx="255.0" cy="147.5" r="3.2" fill="#fff" opacity="0.69"/></g><g opacity="1.00"><circle cx="258.2" cy="169.5" r="10.8" fill="#f5e6a8" stroke="#555" stroke-width="0.45"/><circle cx="254.3" cy="165.6" r="3.2" fill="#fff" opacity="0.69"/></g><line x1="258.9" y1="151.4" x2="258.5" y2="160.4" stroke="#141414" stroke-width="2.7" stroke-linecap="round" opacity="0.92"/><line x1="258.5" y1="160.4" x2="258.2" y2="169.5" stroke="#141414" stroke-width="2.7" stroke-linecap="round" opacity="0.92"/><g opacity="1.00"><circle cx="258.5" cy="160.4" r="10.8" fill="#f5e6a8" stroke="#555" stroke-width="0.45"/><circle cx="254.7" cy="156.5" r="3.2" fill="#fff" opacity="0.69"/></g><g opacity="1.00"><circle cx="260.0" cy="140.0" r="10.7" fill="#aad4f5" stroke="#555" stroke-width="0.45"/><circle cx="256.1" cy="136.1" r="3.2" fill="#fff" opacity="0.69"/></g></svg>